<svg version="1.0" xmlns="http://www.w3.org/2000/svg"
 width="512.000000pt" height="512.000000pt" viewBox="0 0 512.000000 512.000000"
 preserveAspectRatio="xMidYMid meet">

<g transform="translate(0.000000,512.000000) scale(0.100000,-0.100000)"
fill="#000000" stroke="none">
<path d="M2582 4628 c-8 -8 -12 -47 -12 -109 l0 -96 -73 -6 c-148 -13 -341
-85 -480 -181 -37 -25 -70 -46 -74 -46 -3 0 -37 29 -74 65 -37 36 -72 65 -78
65 -17 0 -51 -38 -51 -56 0 -9 30 -47 66 -84 l65 -68 -69 -86 c-65 -80 -143
-216 -170 -293 -9 -28 -19 -34 -81 -53 -38 -12 -72 -28 -75 -37 -13 -32 -288
-2285 -282 -2308 11 -42 263 -241 517 -408 292 -192 604 -349 857 -432 52 -17
54 -17 95 4 23 11 85 37 137 57 271 103 639 309 925 517 112 82 315 248 324
266 11 21 -272 2306 -289 2326 -7 8 -39 22 -71 31 -65 18 -67 20 -94 84 -32
77 -106 196 -161 260 -30 34 -54 64 -54 68 0 4 29 37 65 72 70 70 80 98 43
124 -12 9 -26 16 -31 16 -5 0 -42 -32 -82 -71 l-73 -71 -54 40 c-139 104 -302
168 -493 196 l-80 12 -3 94 c-1 52 -8 100 -14 107 -13 16 -60 17 -76 1z m-14
-368 c4 -52 16 -70 48 -70 36 0 54 26 54 77 l0 46 60 -7 c146 -17 332 -89 443
-171 l48 -36 -25 -30 c-26 -31 -30 -41 -26 -69 2 -17 28 -40 47 -40 7 0 28 14
47 31 l35 30 32 -36 c67 -76 157 -220 146 -232 -3 -3 -199 53 -434 125 -423
128 -428 129 -465 115 -21 -8 -218 -70 -438 -138 -361 -110 -400 -120 -394
-101 11 38 95 166 143 218 l47 51 44 -31 c50 -37 57 -38 82 -15 27 24 22 53
-14 90 -20 21 -29 37 -22 41 5 4 30 21 54 38 126 88 347 166 455 161 28 -2 30
-5 33 -47z m612 -520 c272 -84 496 -154 498 -156 2 -1 66 -497 142 -1101 104
-833 135 -1101 126 -1112 -18 -23 -180 -150 -312 -244 -283 -202 -631 -395
-891 -493 l-63 -24 0 958 0 957 367 135 c202 74 376 143 386 153 12 12 17 27
13 45 -3 15 -15 97 -26 182 -24 174 -33 193 -93 184 -17 -3 -185 -24 -372 -48
l-340 -43 -385 47 c-421 52 -422 52 -434 -7 -3 -15 -15 -99 -27 -187 -18 -136
-19 -160 -7 -172 8 -8 189 -76 403 -151 215 -75 396 -140 403 -146 17 -13 18
-1907 1 -1907 -24 0 -201 76 -349 149 -272 136 -545 310 -802 513 -91 72 -118
98 -118 117 0 28 270 2184 274 2189 2 1 243 76 537 166 363 111 540 161 554
156 11 -4 243 -76 515 -160z m-895 -670 l340 -40 340 44 c187 24 341 43 342
43 4 -4 35 -238 32 -241 -2 -1 -165 -61 -363 -134 l-359 -131 -371 130 c-204
72 -374 134 -379 138 -7 7 16 197 28 229 3 7 14 10 27 7 13 -2 176 -23 363
-45z"/>
<path d="M1678 2490 c-24 -25 -29 -36 -23 -58 11 -43 34 -62 76 -62 29 0 42 6
58 26 24 30 26 43 10 77 -11 25 -47 47 -75 47 -9 0 -29 -14 -46 -30z"/>
<path d="M3455 2495 c-30 -30 -32 -64 -4 -99 26 -33 79 -36 109 -6 30 30 27
83 -6 109 -35 28 -69 26 -99 -4z"/>
<path d="M1965 2385 c-14 -13 -25 -36 -25 -50 0 -35 42 -75 78 -75 65 0 97 83
49 128 -31 29 -72 28 -102 -3z"/>
<path d="M3182 2403 c-7 -3 -19 -18 -28 -35 -13 -25 -13 -35 -3 -59 32 -79
143 -59 143 26 0 57 -55 91 -112 68z"/>
<path d="M2275 2285 c-50 -49 -20 -125 50 -125 69 0 100 76 50 125 -13 14 -36
25 -50 25 -14 0 -37 -11 -50 -25z"/>
<path d="M2866 2289 c-33 -26 -36 -79 -6 -109 30 -30 83 -27 109 6 28 35 26
69 -4 99 -30 30 -64 32 -99 4z"/>
<path d="M1642 2237 c-45 -48 -11 -127 55 -127 33 0 73 42 73 78 0 63 -84 95
-128 49z"/>
<path d="M3481 2234 c-28 -35 -26 -69 4 -99 48 -49 125 -16 125 53 0 69 -87
99 -129 46z"/>
<path d="M1950 2147 c-38 -19 -54 -60 -38 -94 20 -42 58 -59 95 -44 29 12 53
46 53 76 0 19 -41 62 -65 69 -11 3 -31 0 -45 -7z"/>
<path d="M3220 2147 c-38 -19 -54 -60 -38 -94 20 -42 58 -59 95 -44 29 12 53
46 53 76 0 19 -41 62 -65 69 -11 3 -31 0 -45 -7z"/>
<path d="M2230 2023 c-39 -50 -3 -123 59 -123 55 1 88 54 66 106 -22 53 -90
62 -125 17z"/>
<path d="M2892 2027 c-45 -48 -11 -127 55 -127 31 0 73 42 73 73 0 67 -83 102
-128 54z"/>
<path d="M1630 1997 c-53 -27 -51 -109 4 -136 25 -12 33 -11 62 3 56 26 59
103 4 131 -35 18 -38 18 -70 2z"/>
<path d="M3540 1997 c-53 -27 -51 -109 4 -136 25 -12 33 -11 62 3 56 26 59
103 4 131 -35 18 -38 18 -70 2z"/>
<path d="M1898 1870 c-24 -25 -29 -36 -24 -58 16 -65 100 -83 139 -30 23 30
18 67 -13 98 -29 29 -67 25 -102 -10z"/>
<path d="M3235 1875 c-30 -30 -32 -64 -4 -99 26 -33 79 -36 109 -6 30 30 27
83 -6 109 -35 28 -69 26 -99 -4z"/>
<path d="M2224 1788 c-22 -10 -44 -47 -44 -74 0 -9 14 -29 30 -46 25 -24 36
-29 58 -23 43 11 62 34 62 76 0 29 -6 42 -26 58 -29 23 -48 25 -80 9z"/>
<path d="M2929 1771 c-35 -36 -37 -61 -6 -97 43 -50 116 -29 132 38 6 22 1 33
-23 58 -38 38 -66 38 -103 1z"/>
<path d="M1582 1727 c-13 -14 -22 -36 -22 -55 0 -67 88 -98 129 -46 28 35 26
69 -4 99 -31 32 -74 33 -103 2z"/>
<path d="M3556 1729 c-34 -27 -36 -77 -3 -107 72 -67 172 34 102 103 -30 30
-64 32 -99 4z"/>
<path d="M1873 1625 c-68 -47 -11 -152 72 -131 31 8 58 57 49 91 -12 50 -77
71 -121 40z"/>
<path d="M3261 1614 c-28 -35 -26 -69 4 -99 30 -30 64 -32 99 -4 33 26 36 79
6 109 -30 30 -83 27 -109 -6z"/>
<path d="M2175 1515 c-30 -30 -32 -64 -4 -99 43 -54 129 -23 129 47 0 69 -77
101 -125 52z"/>
<path d="M2972 1533 c-21 -8 -43 -61 -36 -88 21 -84 148 -67 148 20 0 57 -55
91 -112 68z"/>
<path d="M1839 1361 c-35 -36 -37 -61 -6 -97 17 -19 33 -27 56 -27 70 0 101
84 47 130 -36 31 -61 29 -97 -6z"/>
<path d="M3314 1378 c-22 -10 -44 -47 -44 -73 0 -29 46 -68 79 -68 69 0 100
84 47 130 -29 25 -49 28 -82 11z"/>
<path d="M2180 1282 c-31 -10 -60 -46 -60 -74 0 -36 40 -78 73 -78 83 0 107
121 30 147 -16 6 -35 8 -43 5z"/>
<path d="M2985 1260 c-28 -31 -24 -79 9 -107 15 -12 33 -23 41 -23 27 0 63 23
74 47 16 34 14 47 -10 77 -26 33 -86 37 -114 6z"/>
</g>
</svg>
